# xmcd CD database file
#
# Track frame offsets:
#	150
#	14531
#	15415
#	29093
#	30009
#	56347
#	57347
#	80525
#	81556
#	101241
#	102166
#	116655
#	117539
#	135762
#	136705
#	157154
#	158107
#	175480
#	176405
#	203738
#	217251
#	218225
#	239861
#	240814
#	251990
#	252892
#	274963
#	275914
#	292315
#	293280
#	308646
#	309593
#	329076
#
# Disc length: 4440 seconds
#
# Revision: 1
# Processed by: cddbd v1.5.1PL2 Copyright (c) Steve Scherf et al.
# Submitted via: CDex 1.51
#
DISCID=f3115621
DTITLE=Various Artist - Celtic Sounds Of Middle Earth (disc2)
DYEAR=2004
DGENRE=New Age
TTITLE0=Shane McDonnel - EVenstar
TTITLE1=Inside The Walls
TTITLE2=Eimear Quinn - The Voice
TTITLE3=Gathering Horses
TTITLE4=Celtus - Strange Day In The Country
TTITLE5=Sword
TTITLE6=Capercaille - An Gille Ban
TTITLE7=Cave
TTITLE8=Bill Douglas - Sweet Rain
TTITLE9=Rain In The Country
TTITLE10=Gary Moore - Johnny Boy
TTITLE11=Wicked Falk At The Fair
TTITLE12=David Downes - She Moved Thru'thee Fair
TTITLE13=Courtyard
TTITLE14=Secret Garden - Prayer
TTITLE15=Magic Spell
TTITLE16=Maire Brennan - Oro
TTITLE17=Storm Gathering
TTITLE18=Kim Skovbye - Aragorn
TTITLE19=All About Eve - Martha's Harbour 
TTITLE20=Sea
TTITLE21=David Agnew - Lift The Wings
TTITLE22=Seagulls and Shoreline
TTITLE23=Clannad - Theme from Harry's Game
TTITLE24=Waves
TTITLE25=John Doan - The Journey Home
TTITLE26=At The Castle
TTITLE27=Mary McDowell - Only Time
TTITLE28=Footsteps
TTITLE29=Medwyn Goodall - Wisper On The Moors
TTITLE30=Woodfire
TTITLE31=Jeff and Mychael Danna - Hills Of Ireland
TTITLE32=Horseback Riders
EXTD=YEAR: 2004
EXTT0=
EXTT1=
EXTT2=
EXTT3=
EXTT4=
EXTT5=
EXTT6=
EXTT7=
EXTT8=
EXTT9=
EXTT10=
EXTT11=
EXTT12=
EXTT13=
EXTT14=
EXTT15=
EXTT16=
EXTT17=
EXTT18=
EXTT19=
EXTT20=
EXTT21=
EXTT22=
EXTT23=
EXTT24=
EXTT25=
EXTT26=
EXTT27=
EXTT28=
EXTT29=
EXTT30=
EXTT31=
EXTT32=
PLAYORDER=
